<svg id="skull-and-crossbones" xmlns="http://www.w3.org/2000/svg" height="16" width="16" viewBox="0 0 100 100"><title>z</title><path d="M89.65,68a8.66,8.66,0,0,0-4.75,1.64L78.38,63.9c0-.25,0-.48,0-.7,0-.84,0-1.66-.07-2.45s0-1.25,0-1.81a8.69,8.69,0,0,1,.53-2.35c.18-.6.39-1.27.56-2a48.53,48.53,0,0,0,1-7.3,34,34,0,0,0-1.56-13l5.26-4.6a8.77,8.77,0,0,0,11.88,0h0A8.77,8.77,0,0,0,90,14.51h0a8.76,8.76,0,1,0-16.3,3.67l-3.64,3.2c-8.23-6.45-18.72-7-19.95-7h-.26c-1.23,0-11.71.56-19.94,7l-3.66-3.22A8.75,8.75,0,0,0,18.34,5,8.79,8.79,0,0,0,10,14.51h0a8.75,8.75,0,0,0-8.73,9.13,8.66,8.66,0,0,0,2.82,6.08,8.77,8.77,0,0,0,11.89,0l5.25,4.61a33.72,33.72,0,0,0-1.56,13,47.62,47.62,0,0,0,1,7.31c.16.72.37,1.39.55,2a8.69,8.69,0,0,1,.53,2.35c0,.56,0,1.16-.05,1.81s-.08,1.61-.07,2.48c0,.21,0,.44,0,.67l-6.53,5.73A8.75,8.75,0,0,0,1.23,76.36,8.78,8.78,0,0,0,10,85.49h0A8.77,8.77,0,0,0,18.34,95h.38a8.75,8.75,0,0,0,6.94-14.08l5.68-5h0l.12,0a4.15,4.15,0,0,0,.6.1,15.3,15.3,0,0,0,2.27.12h.5a7.35,7.35,0,0,0,.76,3.69,6.85,6.85,0,0,0,2.26,2.42,3.32,3.32,0,0,0,.37.23,11.53,11.53,0,0,0,1.93.93,4.23,4.23,0,0,0,1.45.27h0a4.19,4.19,0,0,0,.7.45,3.44,3.44,0,0,0,.53.21s.27.1.7.23a3,3,0,0,0,.43.12l.06,0,.25.07.32.09.08,0,.12,0,.53.13a1.55,1.55,0,0,0,.31.06l.07,0,.13,0c.63.15,1.37.25,1.76.3l.2,0,.29,0a5.85,5.85,0,0,0,.59,0,4.12,4.12,0,0,0,1.27-.2,4.12,4.12,0,0,0,1.27.2,3.81,3.81,0,0,0,.59,0l.24,0h.09l.16,0c.39,0,1.13-.15,1.76-.3l.13,0,.08,0,.3-.06.53-.13.13,0,.07,0,.31-.09.26-.07.22-.06.18-.06.79-.25a3.44,3.44,0,0,0,.53-.21,4.19,4.19,0,0,0,.7-.45h0a4,4,0,0,0,1.53-.3,11.19,11.19,0,0,0,1.9-.93l.3-.19a6.73,6.73,0,0,0,2.29-2.46,7.28,7.28,0,0,0,.75-3.67h.53A16.57,16.57,0,0,0,68,76.06a3.93,3.93,0,0,0,.58-.1l.12,0h0l5.68,5A8.75,8.75,0,0,0,81.28,95h.38A8.79,8.79,0,0,0,90,85.49h0a8.8,8.8,0,0,0,3.47-.72A8.75,8.75,0,0,0,89.65,68ZM77.76,20a2,2,0,0,0,.2-2.8c0-.07-.11-.12-.17-.19a4.75,4.75,0,1,1,7.59-.81A2,2,0,0,0,88,19a4.76,4.76,0,1,1-1.42,7.52,4.5,4.5,0,0,1-.56-.74,2,2,0,0,0-3-.45l-5.74,5a29.17,29.17,0,0,0-1.74-3.09A22.39,22.39,0,0,0,73,24.1ZM17.05,25.31a2,2,0,0,0-1.32-.49,1.51,1.51,0,0,0-.3,0,2,2,0,0,0-1.4.92,5.17,5.17,0,0,1-.55.73A4.75,4.75,0,1,1,12,19a2,2,0,0,0,2.58-2.82A4.75,4.75,0,1,1,22.2,17l-.16.18a2,2,0,0,0,.2,2.8L27,24.11a22.29,22.29,0,0,0-2.45,3.14,29.17,29.17,0,0,0-1.74,3.09Zm4.37,54a2,2,0,0,0-.68,1.58,2,2,0,0,0,.8,1.53,4.75,4.75,0,0,1,.39,7.32,4.75,4.75,0,0,1-7.31-5.91,2,2,0,0,0-1.72-3A2.08,2.08,0,0,0,12,81a4.75,4.75,0,1,1,1.45-7.49,3.31,3.31,0,0,0,.33.32,2,2,0,0,0,2.59,0l6-5.26a12.22,12.22,0,0,0,.54,1.32,10.54,10.54,0,0,0,4.23,4.41Zm46.24-7.26-.21,0a10.41,10.41,0,0,1-1.69.08,7.35,7.35,0,0,0-3.09.44,2.54,2.54,0,0,0-1.38,1.75c-.31,1,.08,2.73-.39,3.58A3,3,0,0,1,59.81,79h0a7.14,7.14,0,0,1-1.39.67h0a0,0,0,0,1,0,0v-.07a1.23,1.23,0,0,0-2.46,0v.93a.08.08,0,0,1,0,.06l-.68.21-.29.09-.26.07-.37.1-.13,0-.47.12h0l-.44.09h0c-.38.09-.91.17-1.32.22h-.12l-.48.06a0,0,0,0,1,0,0s0-.23,0-.33v-.07a1.22,1.22,0,0,0-.65-1.09,1.2,1.2,0,0,0-1.16,0,1.22,1.22,0,0,0-.65,1.09v.07c0,.1,0,.33,0,.33a0,0,0,0,1,0,0l-.48-.06h-.12c-.41,0-.94-.13-1.32-.22h0l-.44-.09h0l-.47-.12-.13,0-.37-.1-.26-.07-.15,0-.14,0-.68-.21a.08.08,0,0,1,0-.06v-.93a1.23,1.23,0,0,0-2.46,0v.07a0,0,0,0,1,0,0h0a7.14,7.14,0,0,1-1.39-.67h0a3,3,0,0,1-1.09-1.1c-.47-.85-.08-2.56-.39-3.58a2.54,2.54,0,0,0-1.38-1.75,7.49,7.49,0,0,0-3.12-.43,11,11,0,0,1-1.65-.09,1.46,1.46,0,0,1-.22,0c-2.26-.45-4.79-1.83-5.81-3.94a11.1,11.1,0,0,1-.92-4.92c0-.58,0-1.16,0-1.73,0-.86.08-1.71.08-2.53,0-1.85-.78-3.47-1.19-5.25a44.24,44.24,0,0,1-.91-6.7,29.79,29.79,0,0,1,1-10.26q.24-.88.54-1.74a26.29,26.29,0,0,1,2.7-5.57,20.47,20.47,0,0,1,5-5.23C39.05,19.59,47,18.47,50,18.38h0c3,.09,11,1.21,17.14,5.81.52.38,1,.79,1.52,1.22a19.71,19.71,0,0,1,3.45,4A26.17,26.17,0,0,1,74.83,35c.2.57.38,1.15.53,1.74a29.69,29.69,0,0,1,1,10.25,44.24,44.24,0,0,1-.91,6.7c-.41,1.78-1.19,3.4-1.19,5.25,0,.82,0,1.67.08,2.53,0,.57,0,1.15,0,1.73a11.1,11.1,0,0,1-.92,4.92C72.45,70.23,69.92,71.61,67.66,72.06Zm27.11,4.66A4.76,4.76,0,0,1,88,81a2,2,0,0,0-2.59,2.82,4.75,4.75,0,1,1-7.6-.8,5.41,5.41,0,0,1,.7-.62,2,2,0,0,0,.78-1.53,1.94,1.94,0,0,0-.68-1.57l-5.73-5a10.54,10.54,0,0,0,4.22-4.42,13,13,0,0,0,.54-1.31l6,5.26a2,2,0,0,0,2.59,0,2.06,2.06,0,0,0,.33-.33,4.75,4.75,0,0,1,8.25,3Z"/><path d="M52,68a15.07,15.07,0,0,0-.86-2.25,3.47,3.47,0,0,0-.47-.84,1.31,1.31,0,0,0-.66-.45H50a1.34,1.34,0,0,0-.67.45,3.13,3.13,0,0,0-.46.84A14,14,0,0,0,48,68c-.2.67-.43,1.33-.59,2s-.5,2.21.35,2.79a1,1,0,0,0,.54.17c.56,0,1.13-.46,1.71-.48s1.15.48,1.72.48a1,1,0,0,0,.53-.17c.85-.58.53-2,.35-2.79S52.21,68.68,52,68Z"/><path d="M69.61,53.49l0-.07-.29-.37a4.51,4.51,0,0,0-.46-.51,1.21,1.21,0,0,0-.16-.16,1.91,1.91,0,0,0-1.22-.45A3,3,0,0,0,66,52.4a7.46,7.46,0,0,0-.8.54l-1.32,1a16.58,16.58,0,0,1-3.09,2,10.41,10.41,0,0,1-2.47.83,18.91,18.91,0,0,0-2.72.35,3.06,3.06,0,0,0-1.91,2.32,2.39,2.39,0,0,0,0,.6h0a4.44,4.44,0,0,0,1.84,2.72,14.59,14.59,0,0,0,3.13,1.64h0a19.47,19.47,0,0,0,3.58,1.25,10.26,10.26,0,0,0,2.12.27h.18A4.91,4.91,0,0,0,69.29,63a11.89,11.89,0,0,0,.93-3.47c0-.23,0-.44.08-.67l.16-3a4.33,4.33,0,0,0-.82-2.37S69.63,53.51,69.61,53.49Zm-3.29,4.93,0,.33,0,.27a7.45,7.45,0,0,1-.6,2.32c-.1.23-.24.54-1,.56h-.2a6.1,6.1,0,0,1-1.28-.17l-.09,0a16.23,16.23,0,0,1-2.76-1l-.07,0L60,60.58l-.21-.09a15.65,15.65,0,0,0,2.66-1,20.35,20.35,0,0,0,3.82-2.38l.06,0,.15-.12C66.42,57.43,66.37,57.92,66.32,58.42Z"/><path d="M44.44,57.07a18.91,18.91,0,0,0-2.72-.35,10.88,10.88,0,0,1-2.47-.83,16.58,16.58,0,0,1-3.09-2l-1.32-1a6.58,6.58,0,0,0-.8-.54,3,3,0,0,0-1.48-.47,1.91,1.91,0,0,0-1.22.45,1.21,1.21,0,0,0-.16.16,5.45,5.45,0,0,0-.46.5l-.28.37-.05.08s0,0,0,0a4.38,4.38,0,0,0-.82,2.37l.16,3c0,.23.05.44.08.67A12.21,12.21,0,0,0,30.71,63a4.91,4.91,0,0,0,4.73,2.89h.18a10.17,10.17,0,0,0,2.12-.27,19.47,19.47,0,0,0,3.58-1.25l.07,0a13.3,13.3,0,0,0,3.11-1.61A4.35,4.35,0,0,0,46.33,60a2.14,2.14,0,0,0,0-.62A3.06,3.06,0,0,0,44.44,57.07Zm-4.53,3.54-.33.15a14.68,14.68,0,0,1-2.65.94l-.09,0a6.1,6.1,0,0,1-1.28.17h-.2c-.77,0-.91-.33-1-.54A8.28,8.28,0,0,1,33.74,59l0-.26,0-.33c0-.51-.1-1-.12-1.43l.15.12.06,0a20.13,20.13,0,0,0,3.85,2.39,15.09,15.09,0,0,0,2.61.94Z"/><addonInited xmlns="" id="addonInited" targetelementname="addonInited"/></svg>